<svg width="44" height="44" viewBox="0 0 44 44" fill="none" xmlns="http://www.w3.org/2000/svg">
<path fill-rule="evenodd" clip-rule="evenodd" d="M20.7352 35.8354L11.096 30.2701C7.55527 28.2259 5.57732 25.3787 9.32066 20.6769L14.2465 14.2198C16.205 11.9261 18.4107 11.889 19.8482 12.7189L31.6013 19.5046C33.0598 20.3467 33.9927 22.2945 33.1022 25.1062L29.9732 32.6006C27.9923 37.5449 24.276 37.8796 20.7352 35.8354Z" stroke="white" stroke-width="2" stroke-linecap="round" stroke-linejoin="round"/>
<path opacity="0.4" d="M30.828 18.72C32.4188 15.9648 31.4748 12.4417 28.7196 10.851V10.851C27.3961 10.0794 25.8197 9.86674 24.339 10.2601C22.8584 10.6535 21.5954 11.6205 20.8294 12.9473V12.9473" stroke="white" stroke-width="2" stroke-linecap="round" stroke-linejoin="round"/>
<path d="M26.2617 23.0168L26.2089 22.9863" stroke="white" stroke-width="2" stroke-linecap="round" stroke-linejoin="round"/>
<path d="M19.5288 19.1296L19.476 19.0991" stroke="white" stroke-width="2" stroke-linecap="round" stroke-linejoin="round"/>
</svg>
